<svg width="635" height="76" viewBox="0 0 635 76" fill="none" xmlns="http://www.w3.org/2000/svg">
<path d="M581 67.1235L614.545 38.0002L581 8.8765L591.227 0L635 38.0002L591.227 76L581 67.1235Z" fill="white"/>
<path d="M54 67.1234L20.4204 38L53.9659 8.87656L43.7386 0L0 38L43.7727 76L54 67.1234Z" fill="white"/>
<path d="M252.108 59C252.108 57.5533 252.482 56.7133 253.228 56.48L256.938 55.5V17.84L252.248 16.72C252.248 15.46 252.645 14.5967 253.438 14.13H271.358C274.485 14.13 277.098 14.69 279.198 15.81C281.345 16.8833 282.955 18.3533 284.028 20.22C285.102 22.0867 285.638 24.14 285.638 26.38C285.638 28.9 284.962 31.28 283.608 33.52C282.255 35.7133 280.318 37.51 277.798 38.91C275.325 40.31 272.338 41.01 268.838 41.01C267.905 41.01 266.902 40.9633 265.828 40.87C264.755 40.73 263.728 40.5433 262.748 40.31V55.36L268.208 56.41C268.208 57.11 268.115 57.6467 267.928 58.02C267.788 58.3933 267.462 58.72 266.948 59H252.108ZM269.048 17.21C267.882 17.21 266.762 17.28 265.688 17.42C264.615 17.56 263.635 17.7233 262.748 17.91V37.09C263.542 37.2767 264.475 37.44 265.548 37.58C266.622 37.6733 267.695 37.72 268.768 37.72C271.148 37.72 273.108 37.2533 274.648 36.32C276.188 35.34 277.332 34.0567 278.078 32.47C278.872 30.8833 279.268 29.1567 279.268 27.29C279.268 24.07 278.358 21.5967 276.538 19.87C274.765 18.0967 272.268 17.21 269.048 17.21ZM292.637 59C292.637 57.5533 293.01 56.7133 293.757 56.48L297.397 55.5V17.77L292.637 16.72C292.637 16.0667 292.73 15.5533 292.917 15.18C293.104 14.8067 293.454 14.4567 293.967 14.13H308.037C308.037 15.6233 307.664 16.4633 306.917 16.65L303.137 17.63V55.36L308.037 56.41C308.037 57.0167 307.944 57.5067 307.757 57.88C307.617 58.2533 307.29 58.6267 306.777 59H292.637ZM316.828 59C316.828 57.5533 317.201 56.7133 317.948 56.48L321.588 55.5V17.84L316.828 16.72C316.828 16.0667 316.921 15.5533 317.108 15.18C317.295 14.8067 317.645 14.4567 318.158 14.13H347.628V22.95C346.181 22.95 345.318 22.5533 345.038 21.76L343.498 17.07L327.328 17.91V34.71H340.488L341.398 30.3C341.865 30.3 342.331 30.37 342.798 30.51C343.265 30.65 343.661 30.93 343.988 31.35V41.22C343.661 41.64 343.265 41.92 342.798 42.06C342.331 42.1533 341.865 42.2 341.398 42.2L340.418 37.79H327.328V54.94L345.458 56.06L347.138 48.64C347.791 48.64 348.305 48.7333 348.678 48.92C349.098 49.1067 349.471 49.3867 349.798 49.76V59H316.828ZM358.451 59C358.451 57.5533 358.824 56.7133 359.571 56.48L363.281 55.5V17.84L358.591 16.72C358.591 15.46 358.987 14.5967 359.781 14.13H377.701C380.734 14.13 383.254 14.6667 385.261 15.74C387.314 16.7667 388.854 18.1667 389.881 19.94C390.954 21.6667 391.491 23.58 391.491 25.68C391.491 28.3867 390.627 30.9067 388.901 33.24C387.221 35.5733 384.864 37.3 381.831 38.42C383.697 41.5467 385.611 44.44 387.571 47.1C389.577 49.76 391.467 52.0233 393.241 53.89C395.061 55.71 396.671 56.97 398.071 57.67C397.557 58.23 396.927 58.72 396.181 59.14C395.481 59.56 394.734 59.77 393.941 59.77C392.634 59.77 391.024 58.9767 389.111 57.39C387.197 55.7567 385.191 53.4233 383.091 50.39C380.991 47.3567 378.984 43.6933 377.071 39.4C376.464 39.4467 375.834 39.47 375.181 39.47C374.247 39.47 373.244 39.4233 372.171 39.33C371.097 39.2367 370.071 39.0733 369.091 38.84V55.36L374.341 56.41C374.341 57.11 374.247 57.6467 374.061 58.02C373.921 58.3933 373.594 58.72 373.081 59H358.451ZM375.391 17.21C374.224 17.21 373.104 17.28 372.031 17.42C370.957 17.56 369.977 17.7233 369.091 17.91V35.62C369.884 35.8067 370.817 35.9467 371.891 36.04C372.964 36.1333 374.037 36.18 375.111 36.18C378.517 36.18 381.037 35.2233 382.671 33.31C384.351 31.3967 385.191 29.1567 385.191 26.59C385.191 23.5567 384.304 21.2467 382.531 19.66C380.804 18.0267 378.424 17.21 375.391 17.21ZM422.828 59.84C418.721 59.84 415.104 58.93 411.978 57.11C408.851 55.2433 406.401 52.7 404.628 49.48C402.901 46.2133 402.038 42.4567 402.038 38.21C402.038 34.6167 402.644 31.3033 403.858 28.27C405.071 25.2367 406.751 22.6 408.898 20.36C411.044 18.0733 413.588 16.3 416.528 15.04C419.468 13.78 422.641 13.15 426.048 13.15C430.901 13.15 435.194 14.2933 438.928 16.58L437.598 26.38C435.964 26.38 435.101 25.9833 435.008 25.19L434.448 19.24C433.234 18.4933 431.718 17.91 429.898 17.49C428.124 17.0233 426.304 16.79 424.438 16.79C421.171 16.79 418.324 17.5833 415.898 19.17C413.471 20.71 411.604 22.9267 410.298 25.82C408.991 28.7133 408.338 32.1433 408.338 36.11C408.338 40.17 408.991 43.7167 410.298 46.75C411.651 49.7833 413.518 52.14 415.898 53.82C418.278 55.5 421.031 56.34 424.158 56.34C426.211 56.34 428.148 55.99 429.968 55.29C431.834 54.59 433.374 53.6333 434.588 52.42L435.288 44.16C436.314 44.16 437.061 44.2533 437.528 44.44C437.994 44.6267 438.298 44.9067 438.438 45.28L438.858 54.38C436.991 56.06 434.611 57.39 431.718 58.37C428.824 59.35 425.861 59.84 422.828 59.84ZM447.985 59C447.985 57.5533 448.358 56.7133 449.105 56.48L452.745 55.5V17.84L447.985 16.72C447.985 16.0667 448.078 15.5533 448.265 15.18C448.452 14.8067 448.802 14.4567 449.315 14.13H478.785V22.95C477.338 22.95 476.475 22.5533 476.195 21.76L474.655 17.07L458.485 17.91V34.71H471.645L472.555 30.3C473.022 30.3 473.488 30.37 473.955 30.51C474.422 30.65 474.818 30.93 475.145 31.35V41.22C474.818 41.64 474.422 41.92 473.955 42.06C473.488 42.1533 473.022 42.2 472.555 42.2L471.575 37.79H458.485V54.94L476.615 56.06L478.295 48.64C478.948 48.64 479.462 48.7333 479.835 48.92C480.255 49.1067 480.628 49.3867 480.955 49.76V59H447.985ZM489.608 59C489.608 57.5533 489.981 56.7133 490.728 56.48L494.438 55.5V17.84L489.748 16.72C489.748 15.46 490.144 14.5967 490.938 14.13H508.858C511.891 14.13 514.411 14.6667 516.418 15.74C518.471 16.7667 520.011 18.1667 521.038 19.94C522.111 21.6667 522.648 23.58 522.648 25.68C522.648 28.3867 521.784 30.9067 520.058 33.24C518.378 35.5733 516.021 37.3 512.988 38.42C514.854 41.5467 516.768 44.44 518.728 47.1C520.734 49.76 522.624 52.0233 524.398 53.89C526.218 55.71 527.828 56.97 529.228 57.67C528.714 58.23 528.084 58.72 527.338 59.14C526.638 59.56 525.891 59.77 525.098 59.77C523.791 59.77 522.181 58.9767 520.268 57.39C518.354 55.7567 516.348 53.4233 514.248 50.39C512.148 47.3567 510.141 43.6933 508.228 39.4C507.621 39.4467 506.991 39.47 506.338 39.47C505.404 39.47 504.401 39.4233 503.328 39.33C502.254 39.2367 501.228 39.0733 500.248 38.84V55.36L505.498 56.41C505.498 57.11 505.404 57.6467 505.218 58.02C505.078 58.3933 504.751 58.72 504.238 59H489.608ZM506.548 17.21C505.381 17.21 504.261 17.28 503.188 17.42C502.114 17.56 501.134 17.7233 500.248 17.91V35.62C501.041 35.8067 501.974 35.9467 503.048 36.04C504.121 36.1333 505.194 36.18 506.268 36.18C509.674 36.18 512.194 35.2233 513.828 33.31C515.508 31.3967 516.348 29.1567 516.348 26.59C516.348 23.5567 515.461 21.2467 513.688 19.66C511.961 18.0267 509.581 17.21 506.548 17.21Z" fill="white"/>
<path d="M252.108 59H251.108V60H252.108V59ZM253.228 56.48L252.973 55.5132L252.951 55.5189L252.93 55.5255L253.228 56.48ZM256.938 55.5L257.194 56.4668L257.938 56.2701V55.5H256.938ZM256.938 17.84H257.938V17.0507L257.17 16.8673L256.938 17.84ZM252.248 16.72H251.248V17.5093L252.016 17.6926L252.248 16.72ZM253.438 14.13V13.13H253.166L252.931 13.2681L253.438 14.13ZM279.198 15.81L278.728 16.6924L278.739 16.6985L278.751 16.7044L279.198 15.81ZM283.608 33.52L284.459 34.0451L284.464 34.0371L283.608 33.52ZM277.798 38.91L277.313 38.0358L277.306 38.0397L277.798 38.91ZM265.828 40.87L265.699 41.8616L265.72 41.8644L265.742 41.8662L265.828 40.87ZM262.748 40.31L262.98 39.3372L261.748 39.0439V40.31H262.748ZM262.748 55.36H261.748V56.186L262.559 56.342L262.748 55.36ZM268.208 56.41H269.208V55.584L268.397 55.428L268.208 56.41ZM267.928 58.02L267.034 57.5728L267.01 57.6197L266.992 57.6689L267.928 58.02ZM266.948 59V60H267.203L267.427 59.8779L266.948 59ZM265.688 17.42L265.559 16.4284L265.559 16.4284L265.688 17.42ZM262.748 17.91L262.542 16.9314L261.748 17.0986V17.91H262.748ZM262.748 37.09H261.748V37.882L262.519 38.0634L262.748 37.09ZM265.548 37.58L265.419 38.5716L265.44 38.5744L265.462 38.5762L265.548 37.58ZM274.648 36.32L275.166 37.1752L275.176 37.1695L275.185 37.1637L274.648 36.32ZM278.078 32.47L277.184 32.0228L277.178 32.0334L277.173 32.0442L278.078 32.47ZM276.538 19.87L275.831 20.5771L275.84 20.5864L275.85 20.5955L276.538 19.87ZM253.108 59C253.108 58.345 253.195 57.931 253.302 57.6911C253.394 57.4833 253.476 57.4501 253.526 57.4345L252.93 55.5255C252.233 55.7432 251.755 56.2467 251.474 56.8789C251.208 57.479 251.108 58.2083 251.108 59H253.108ZM253.484 57.4468L257.194 56.4668L256.683 54.5332L252.973 55.5132L253.484 57.4468ZM257.938 55.5V17.84H255.938V55.5H257.938ZM257.17 16.8673L252.48 15.7473L252.016 17.6926L256.706 18.8126L257.17 16.8673ZM253.248 16.72C253.248 15.6675 253.566 15.2152 253.945 14.9919L252.931 13.2681C251.724 13.9781 251.248 15.2525 251.248 16.72H253.248ZM253.438 15.13H271.358V13.13H253.438V15.13ZM271.358 15.13C274.37 15.13 276.811 15.67 278.728 16.6924L279.669 14.9276C277.386 13.71 274.599 13.13 271.358 13.13V15.13ZM278.751 16.7044C280.743 17.7003 282.197 19.0413 283.161 20.7185L284.895 19.7215C283.713 17.6653 281.947 16.0663 279.645 14.9156L278.751 16.7044ZM283.161 20.7185C284.144 22.4272 284.638 24.3076 284.638 26.38H286.638C286.638 23.9724 286.059 21.7461 284.895 19.7215L283.161 20.7185ZM284.638 26.38C284.638 28.7105 284.015 30.9126 282.752 33.0029L284.464 34.0371C285.908 31.6474 286.638 29.0895 286.638 26.38H284.638ZM282.757 32.9949C281.504 35.0259 279.701 36.7089 277.313 38.0358L278.284 39.7842C280.935 38.3111 283.006 36.4008 284.459 34.0451L282.757 32.9949ZM277.306 38.0397C275.014 39.3371 272.205 40.01 268.838 40.01V42.01C272.471 42.01 275.636 41.2829 278.291 39.7803L277.306 38.0397ZM268.838 40.01C267.938 40.01 266.964 39.965 265.915 39.8738L265.742 41.8662C266.839 41.9617 267.872 42.01 268.838 42.01V40.01ZM265.958 39.8784C264.916 39.7426 263.924 39.5619 262.98 39.3372L262.517 41.2828C263.533 41.5247 264.594 41.7174 265.699 41.8616L265.958 39.8784ZM261.748 40.31V55.36H263.748V40.31H261.748ZM262.559 56.342L268.019 57.392L268.397 55.428L262.937 54.378L262.559 56.342ZM267.208 56.41C267.208 57.0467 267.119 57.4021 267.034 57.5728L268.823 58.4672C269.111 57.8912 269.208 57.1733 269.208 56.41H267.208ZM266.992 57.6689C266.968 57.7327 266.868 57.9047 266.469 58.1221L267.427 59.8779C268.055 59.5353 268.608 59.054 268.864 58.3711L266.992 57.6689ZM266.948 58H252.108V60H266.948V58ZM269.048 16.21C267.842 16.21 266.678 16.2824 265.559 16.4284L265.818 18.4116C266.845 18.2776 267.921 18.21 269.048 18.21V16.21ZM265.559 16.4284C264.465 16.5711 263.459 16.7385 262.542 16.9314L262.954 18.8885C263.811 18.7081 264.765 18.5489 265.818 18.4116L265.559 16.4284ZM261.748 17.91V37.09H263.748V17.91H261.748ZM262.519 38.0634C263.354 38.2599 264.322 38.4286 265.419 38.5716L265.678 36.5884C264.628 36.4515 263.729 36.2935 262.977 36.1166L262.519 38.0634ZM265.462 38.5762C266.564 38.6721 267.666 38.72 268.768 38.72V36.72C267.724 36.72 266.679 36.6746 265.635 36.5838L265.462 38.5762ZM268.768 38.72C271.274 38.72 273.428 38.2291 275.166 37.1752L274.13 35.4648C272.789 36.2776 271.023 36.72 268.768 36.72V38.72ZM275.185 37.1637C276.878 36.0864 278.152 34.661 278.983 32.8958L277.173 32.0442C276.511 33.4523 275.498 34.5936 274.111 35.4763L275.185 37.1637ZM278.973 32.9172C279.839 31.1844 280.268 29.3036 280.268 27.29H278.268C278.268 29.0098 277.904 30.5822 277.184 32.0228L278.973 32.9172ZM280.268 27.29C280.268 23.8778 279.298 21.1099 277.226 19.1445L275.85 20.5955C277.418 22.0834 278.268 24.2622 278.268 27.29H280.268ZM277.245 19.1629C275.235 17.1528 272.455 16.21 269.048 16.21V18.21C272.082 18.21 274.294 19.0405 275.831 20.5771L277.245 19.1629ZM292.637 59H291.637V60H292.637V59ZM293.757 56.48L293.497 55.5144L293.478 55.5196L293.459 55.5255L293.757 56.48ZM297.397 55.5L297.657 56.4656L298.397 56.2664V55.5H297.397ZM297.397 17.77H298.397V16.9665L297.612 16.7935L297.397 17.77ZM292.637 16.72H291.637V17.5234L292.422 17.6965L292.637 16.72ZM292.917 15.18L292.023 14.7328V14.7328L292.917 15.18ZM293.967 14.13V13.13H293.676L293.43 13.2863L293.967 14.13ZM308.037 14.13H309.037V13.13H308.037V14.13ZM306.917 16.65L306.675 15.6798L306.666 15.682L306.917 16.65ZM303.137 17.63L302.886 16.662L302.137 16.8562V17.63H303.137ZM303.137 55.36H302.137V56.1684L302.928 56.3378L303.137 55.36ZM308.037 56.41H309.037V55.6016L308.247 55.4322L308.037 56.41ZM307.757 57.88L306.863 57.4328L306.839 57.4797L306.821 57.5289L307.757 57.88ZM306.777 59V60H307.102L307.365 59.8087L306.777 59ZM293.637 59C293.637 58.345 293.724 57.931 293.831 57.6911C293.923 57.4833 294.005 57.4501 294.055 57.4345L293.459 55.5255C292.762 55.7432 292.284 56.2467 292.003 56.8789C291.737 57.479 291.637 58.2083 291.637 59H293.637ZM294.017 57.4456L297.657 56.4656L297.137 54.5344L293.497 55.5144L294.017 57.4456ZM298.397 55.5V17.77H296.397V55.5H298.397ZM297.612 16.7935L292.852 15.7435L292.422 17.6965L297.182 18.7465L297.612 16.7935ZM293.637 16.72C293.637 16.1429 293.723 15.805 293.812 15.6272L292.023 14.7328C291.738 15.3016 291.637 15.9904 291.637 16.72H293.637ZM293.812 15.6272C293.888 15.4738 294.078 15.2448 294.504 14.9737L293.43 13.2863C292.83 13.6685 292.319 14.1395 292.023 14.7328L293.812 15.6272ZM293.967 15.13H308.037V13.13H293.967V15.13ZM307.037 14.13C307.037 14.8137 306.949 15.2371 306.843 15.4739C306.754 15.6737 306.69 15.676 306.675 15.6799L307.16 17.6201C307.891 17.4373 308.386 16.9263 308.671 16.2861C308.939 15.6829 309.037 14.9397 309.037 14.13H307.037ZM306.666 15.682L302.886 16.662L303.388 18.598L307.168 17.618L306.666 15.682ZM302.137 17.63V55.36H304.137V17.63H302.137ZM302.928 56.3378L307.828 57.3878L308.247 55.4322L303.347 54.3822L302.928 56.3378ZM307.037 56.41C307.037 56.9267 306.956 57.2468 306.863 57.4328L308.652 58.3272C308.932 57.7665 309.037 57.1067 309.037 56.41H307.037ZM306.821 57.5289C306.779 57.6399 306.63 57.8707 306.189 58.1913L307.365 59.8087C307.951 59.3826 308.455 58.8668 308.693 58.2311L306.821 57.5289ZM306.777 58H292.637V60H306.777V58ZM316.828 59H315.828V60H316.828V59ZM317.948 56.48L317.688 55.5144L317.669 55.5196L317.65 55.5255L317.948 56.48ZM321.588 55.5L321.848 56.4656L322.588 56.2664V55.5H321.588ZM321.588 17.84H322.588V17.048L321.817 16.8666L321.588 17.84ZM316.828 16.72H315.828V17.512L316.599 17.6934L316.828 16.72ZM317.108 15.18L316.214 14.7328L316.214 14.7328L317.108 15.18ZM318.158 14.13V13.13H317.867L317.621 13.2863L318.158 14.13ZM347.628 14.13H348.628V13.13H347.628V14.13ZM347.628 22.95V23.95H348.628V22.95H347.628ZM345.038 21.76L344.088 22.072L344.091 22.0824L344.095 22.0928L345.038 21.76ZM343.498 17.07L344.448 16.758L344.21 16.0317L343.446 16.0713L343.498 17.07ZM327.328 17.91L327.276 16.9113L326.328 16.9606V17.91H327.328ZM327.328 34.71H326.328V35.71H327.328V34.71ZM340.488 34.71V35.71H341.303L341.467 34.9121L340.488 34.71ZM341.398 30.3V29.3H340.583L340.419 30.0979L341.398 30.3ZM342.798 30.51L342.511 31.4678L342.511 31.4678L342.798 30.51ZM343.988 31.35H344.988V31.0069L344.777 30.7361L343.988 31.35ZM343.988 41.22L344.777 41.8339L344.988 41.5631V41.22H343.988ZM342.798 42.06L342.994 43.0406L343.04 43.0313L343.085 43.0178L342.798 42.06ZM341.398 42.2L340.422 42.4169L340.596 43.2H341.398V42.2ZM340.418 37.79L341.394 37.5731L341.22 36.79H340.418V37.79ZM327.328 37.79V36.79H326.328V37.79H327.328ZM327.328 54.94H326.328V55.8801L327.266 55.9381L327.328 54.94ZM345.458 56.06L345.396 57.0581L346.246 57.1105L346.433 56.2808L345.458 56.06ZM347.138 48.64V47.64H346.339L346.163 48.4192L347.138 48.64ZM348.678 48.92L348.231 49.8144L348.251 49.8246L348.272 49.8338L348.678 48.92ZM349.798 49.76H350.798V49.3843L350.551 49.1015L349.798 49.76ZM349.798 59V60H350.798V59H349.798ZM317.828 59C317.828 58.345 317.915 57.931 318.022 57.6911C318.114 57.4833 318.196 57.4501 318.246 57.4345L317.65 55.5255C316.953 55.7432 316.475 56.2467 316.194 56.8789C315.928 57.479 315.828 58.2083 315.828 59H317.828ZM318.208 57.4456L321.848 56.4656L321.328 54.5344L317.688 55.5144L318.208 57.4456ZM322.588 55.5V17.84H320.588V55.5H322.588ZM321.817 16.8666L317.057 15.7466L316.599 17.6934L321.359 18.8134L321.817 16.8666ZM317.828 16.72C317.828 16.1429 317.914 15.805 318.003 15.6272L316.214 14.7328C315.929 15.3016 315.828 15.9904 315.828 16.72H317.828ZM318.003 15.6272C318.079 15.4738 318.269 15.2448 318.695 14.9737L317.621 13.2863C317.021 13.6685 316.51 14.1395 316.214 14.7328L318.003 15.6272ZM318.158 15.13H347.628V13.13H318.158V15.13ZM346.628 14.13V22.95H348.628V14.13H346.628ZM347.628 21.95C346.265 21.95 346.033 21.5745 345.981 21.4272L344.095 22.0928C344.603 23.5322 346.097 23.95 347.628 23.95V21.95ZM345.988 21.448L344.448 16.758L342.548 17.382L344.088 22.072L345.988 21.448ZM343.446 16.0713L327.276 16.9113L327.38 18.9087L343.55 18.0687L343.446 16.0713ZM326.328 17.91V34.71H328.328V17.91H326.328ZM327.328 35.71H340.488V33.71H327.328V35.71ZM341.467 34.9121L342.377 30.5021L340.419 30.0979L339.509 34.5079L341.467 34.9121ZM341.398 31.3C341.763 31.3 342.133 31.3546 342.511 31.4678L343.085 29.5522C342.53 29.3854 341.966 29.3 341.398 29.3V31.3ZM342.511 31.4678C342.76 31.5426 342.987 31.6921 343.199 31.9639L344.777 30.7361C344.336 30.1679 343.77 29.7574 343.085 29.5522L342.511 31.4678ZM342.988 31.35V41.22H344.988V31.35H342.988ZM343.199 40.6061C342.987 40.8779 342.76 41.0274 342.511 41.1022L343.085 43.0178C343.77 42.8126 344.336 42.4021 344.777 41.8339L343.199 40.6061ZM342.602 41.0794C342.199 41.1601 341.798 41.2 341.398 41.2V43.2C341.932 43.2 342.464 43.1466 342.994 43.0406L342.602 41.0794ZM342.374 41.9831L341.394 37.5731L339.442 38.0069L340.422 42.4169L342.374 41.9831ZM340.418 36.79H327.328V38.79H340.418V36.79ZM326.328 37.79V54.94H328.328V37.79H326.328ZM327.266 55.9381L345.396 57.0581L345.52 55.0619L327.39 53.9419L327.266 55.9381ZM346.433 56.2808L348.113 48.8608L346.163 48.4192L344.483 55.8392L346.433 56.2808ZM347.138 49.64C347.715 49.64 348.053 49.7255 348.231 49.8144L349.125 48.0256C348.556 47.7412 347.868 47.64 347.138 47.64V49.64ZM348.272 49.8338C348.549 49.957 348.807 50.1456 349.046 50.4185L350.551 49.1015C350.136 48.6277 349.647 48.2564 349.084 48.0062L348.272 49.8338ZM348.798 49.76V59H350.798V49.76H348.798ZM349.798 58H316.828V60H349.798V58ZM358.451 59H357.451V60H358.451V59ZM359.571 56.48L359.315 55.5132L359.294 55.5189L359.272 55.5255L359.571 56.48ZM363.281 55.5L363.536 56.4668L364.281 56.2701V55.5H363.281ZM363.281 17.84H364.281V17.0507L363.513 16.8673L363.281 17.84ZM358.591 16.72H357.591V17.5093L358.358 17.6926L358.591 16.72ZM359.781 14.13V13.13H359.508L359.274 13.2681L359.781 14.13ZM385.261 15.74L384.789 16.6218L384.801 16.6283L384.814 16.6344L385.261 15.74ZM389.881 19.94L389.015 20.441L389.023 20.4546L389.031 20.4679L389.881 19.94ZM388.901 33.24L388.097 32.6451L388.089 32.6557L388.901 33.24ZM381.831 38.42L381.484 37.4819L380.355 37.8989L380.972 38.9326L381.831 38.42ZM387.571 47.1L386.766 47.6932L386.772 47.7022L387.571 47.1ZM393.241 53.89L392.516 54.5788L392.525 54.588L392.534 54.5971L393.241 53.89ZM398.071 57.67L398.808 58.3457L399.704 57.3685L398.518 56.7756L398.071 57.67ZM396.181 59.14L395.69 58.2684L395.678 58.2753L395.666 58.2825L396.181 59.14ZM389.111 57.39L388.461 58.1506L388.467 58.1552L388.472 58.1598L389.111 57.39ZM383.091 50.39L383.913 49.8208L383.091 50.39ZM377.071 39.4L377.984 38.9929L377.697 38.3489L376.994 38.4029L377.071 39.4ZM369.091 38.84L369.322 37.8672L368.091 37.574V38.84H369.091ZM369.091 55.36H368.091V56.1798L368.895 56.3406L369.091 55.36ZM374.341 56.41H375.341V55.5902L374.537 55.4294L374.341 56.41ZM374.061 58.02L373.166 57.5728L373.143 57.6197L373.124 57.6689L374.061 58.02ZM373.081 59V60H373.336L373.56 59.8779L373.081 59ZM372.031 17.42L371.901 16.4284V16.4284L372.031 17.42ZM369.091 17.91L368.885 16.9314L368.091 17.0986V17.91H369.091ZM369.091 35.62H368.091V36.412L368.862 36.5934L369.091 35.62ZM371.891 36.04L371.804 37.0362L371.891 36.04ZM382.671 33.31L381.919 32.6501L381.91 32.6607L382.671 33.31ZM382.531 19.66L381.844 20.3865L381.854 20.396L381.864 20.4052L382.531 19.66ZM359.451 59C359.451 58.345 359.538 57.931 359.645 57.6911C359.737 57.4833 359.819 57.4501 359.869 57.4345L359.272 55.5255C358.576 55.7432 358.098 56.2467 357.817 56.8789C357.55 57.479 357.451 58.2083 357.451 59H359.451ZM359.826 57.4468L363.536 56.4668L363.025 54.5332L359.315 55.5132L359.826 57.4468ZM364.281 55.5V17.84H362.281V55.5H364.281ZM363.513 16.8673L358.823 15.7473L358.358 17.6926L363.048 18.8126L363.513 16.8673ZM359.591 16.72C359.591 15.6675 359.908 15.2152 360.288 14.9919L359.274 13.2681C358.067 13.9781 357.591 15.2525 357.591 16.72H359.591ZM359.781 15.13H377.701V13.13H359.781V15.13ZM377.701 15.13C380.622 15.13 382.968 15.6476 384.789 16.6218L385.732 14.8582C383.54 13.6857 380.846 13.13 377.701 13.13V15.13ZM384.814 16.6344C386.714 17.5845 388.098 18.8568 389.015 20.441L390.746 19.439C389.61 17.4765 387.914 15.9488 385.708 14.8456L384.814 16.6344ZM389.031 20.4679C390.003 22.0307 390.491 23.7601 390.491 25.68H392.491C392.491 23.3999 391.905 21.3026 390.73 19.4121L389.031 20.4679ZM390.491 25.68C390.491 28.1566 389.706 30.4707 388.097 32.6452L389.705 33.8348C391.549 31.3426 392.491 28.6167 392.491 25.68H390.491ZM388.089 32.6557C386.54 34.8077 384.355 36.422 381.484 37.4819L382.177 39.3581C385.373 38.178 387.902 36.3389 389.712 33.8243L388.089 32.6557ZM380.972 38.9326C382.854 42.0842 384.785 45.0047 386.766 47.6932L388.376 46.5068C386.437 43.8753 384.541 41.0091 382.689 37.9074L380.972 38.9326ZM386.772 47.7022C388.796 50.3842 390.71 52.6781 392.516 54.5788L393.966 53.2013C392.225 51.3686 390.359 49.1358 388.369 46.4978L386.772 47.7022ZM392.534 54.5971C394.387 56.4508 396.085 57.7954 397.624 58.5644L398.518 56.7756C397.256 56.1446 395.734 54.9692 393.948 53.1829L392.534 54.5971ZM397.334 56.9943C396.9 57.4671 396.357 57.8937 395.69 58.2684L396.671 60.0116C397.498 59.5463 398.215 58.9929 398.808 58.3457L397.334 56.9943ZM395.666 58.2825C395.117 58.6121 394.547 58.77 393.941 58.77V60.77C394.921 60.77 395.845 60.5079 396.695 59.9975L395.666 58.2825ZM393.941 58.77C393.001 58.77 391.623 58.1746 389.749 56.6202L388.472 58.1598C390.425 59.7788 392.267 60.77 393.941 60.77V58.77ZM389.76 56.6294C387.935 55.0716 385.984 52.8129 383.913 49.8208L382.269 50.9592C384.397 54.0338 386.46 56.4417 388.461 58.1506L389.76 56.6294ZM383.913 49.8208C381.856 46.8502 379.879 43.2441 377.984 38.9929L376.157 39.8071C378.089 44.1426 380.125 47.8631 382.269 50.9592L383.913 49.8208ZM376.994 38.4029C376.415 38.4475 375.81 38.47 375.181 38.47V40.47C375.858 40.47 376.513 40.4458 377.147 40.3971L376.994 38.4029ZM375.181 38.47C374.28 38.47 373.306 38.425 372.257 38.3338L372.084 40.3262C373.182 40.4217 374.214 40.47 375.181 40.47V38.47ZM372.257 38.3338C371.23 38.2444 370.252 38.0884 369.322 37.8672L368.859 39.8128C369.89 40.0582 370.965 40.229 372.084 40.3262L372.257 38.3338ZM368.091 38.84V55.36H370.091V38.84H368.091ZM368.895 56.3406L374.145 57.3906L374.537 55.4294L369.287 54.3794L368.895 56.3406ZM373.341 56.41C373.341 57.0467 373.252 57.4021 373.166 57.5728L374.955 58.4672C375.243 57.8912 375.341 57.1733 375.341 56.41H373.341ZM373.124 57.6689C373.1 57.7327 373 57.9047 372.602 58.1221L373.56 59.8779C374.188 59.5353 374.741 59.054 374.997 58.3711L373.124 57.6689ZM373.081 58H358.451V60H373.081V58ZM375.391 16.21C374.184 16.21 373.021 16.2824 371.901 16.4284L372.16 18.4116C373.187 18.2776 374.264 18.21 375.391 18.21V16.21ZM371.901 16.4284C370.807 16.5711 369.801 16.7385 368.885 16.9314L369.297 18.8885C370.154 18.7081 371.108 18.5489 372.16 18.4116L371.901 16.4284ZM368.091 17.91V35.62H370.091V17.91H368.091ZM368.862 36.5934C369.714 36.794 370.697 36.94 371.804 37.0362L371.977 35.0438C370.938 34.9534 370.054 34.8194 369.32 34.6466L368.862 36.5934ZM371.804 37.0362C372.906 37.1321 374.008 37.18 375.111 37.18V35.18C374.066 35.18 373.022 35.1346 371.977 35.0438L371.804 37.0362ZM375.111 37.18C378.701 37.18 381.547 36.1666 383.431 33.9593L381.91 32.6607C380.528 34.28 378.334 35.18 375.111 35.18V37.18ZM383.422 33.9698C385.264 31.8724 386.191 29.3973 386.191 26.59H384.191C384.191 28.916 383.438 30.9209 381.919 32.6502L383.422 33.9698ZM386.191 26.59C386.191 23.3557 385.238 20.7405 383.198 18.9148L381.864 20.4052C383.37 21.7529 384.191 23.7577 384.191 26.59H386.191ZM383.218 18.9335C381.258 17.0798 378.606 16.21 375.391 16.21V18.21C378.242 18.21 380.35 18.9735 381.844 20.3865L383.218 18.9335ZM411.978 57.11L411.465 57.9687L411.475 57.9742L411.978 57.11ZM404.628 49.48L403.744 49.9473L403.748 49.9549L403.752 49.9624L404.628 49.48ZM408.898 20.36L409.62 21.0519L409.627 21.0444L408.898 20.36ZM416.528 15.04L416.922 15.9591L416.528 15.04ZM438.928 16.58L439.919 16.7145L440.006 16.068L439.45 15.7272L438.928 16.58ZM437.598 26.38V27.38H438.471L438.589 26.5145L437.598 26.38ZM435.008 25.19L434.012 25.2837L434.013 25.2953L434.015 25.3068L435.008 25.19ZM434.448 19.24L435.443 19.1463L435.397 18.6497L434.972 18.3883L434.448 19.24ZM429.898 17.49L429.643 18.4571L429.658 18.461L429.673 18.4644L429.898 17.49ZM415.898 19.17L416.434 20.0144L416.445 20.007L415.898 19.17ZM410.298 25.82L409.386 25.4084L410.298 25.82ZM410.298 46.75L409.379 47.1457L409.385 47.1574L410.298 46.75ZM415.898 53.82L415.321 54.637L415.898 53.82ZM429.968 55.29L429.617 54.3536L429.609 54.3567L429.968 55.29ZM434.588 52.42L435.295 53.1271L435.553 52.8686L435.584 52.5044L434.588 52.42ZM435.288 44.16V43.16H434.369L434.291 44.0756L435.288 44.16ZM437.528 44.44L437.156 45.3685L437.528 44.44ZM438.438 45.28L439.437 45.2339L439.429 45.0765L439.374 44.9289L438.438 45.28ZM438.858 54.38L439.527 55.1233L439.879 54.8067L439.857 54.3339L438.858 54.38ZM431.718 58.37L431.397 57.4229L431.718 58.37ZM422.828 58.84C418.874 58.84 415.435 57.9654 412.481 56.2458L411.475 57.9742C414.774 59.8946 418.569 60.84 422.828 60.84V58.84ZM412.49 56.2514C409.518 54.4766 407.192 52.0637 405.504 48.9976L403.752 49.9624C405.61 53.3363 408.185 56.0101 411.465 57.9686L412.49 56.2514ZM405.512 49.0127C403.872 45.9102 403.038 42.3183 403.038 38.21H401.038C401.038 42.5951 401.93 46.5164 403.744 49.9473L405.512 49.0127ZM403.038 38.21C403.038 34.7312 403.625 31.5453 404.786 28.6414L402.929 27.8986C401.664 31.0613 401.038 34.5022 401.038 38.21H403.038ZM404.786 28.6414C405.955 25.7207 407.566 23.1944 409.62 21.0519L408.176 19.6681C405.936 22.0056 404.188 24.7526 402.929 27.8986L404.786 28.6414ZM409.627 21.0444C411.677 18.8603 414.106 17.166 416.922 15.9591L416.134 14.1209C413.07 15.434 410.412 17.2864 408.169 19.6756L409.627 21.0444ZM416.922 15.9591C419.729 14.7559 422.768 14.15 426.048 14.15V12.15C422.515 12.15 419.206 12.8041 416.134 14.1209L416.922 15.9591ZM426.048 14.15C430.737 14.15 434.846 15.2526 438.405 17.4328L439.45 15.7272C435.543 13.3341 431.065 12.15 426.048 12.15V14.15ZM437.937 16.4455L436.607 26.2455L438.589 26.5145L439.919 16.7145L437.937 16.4455ZM437.598 25.38C436.836 25.38 436.381 25.2834 436.143 25.1738C436.034 25.1239 436.003 25.0861 436.002 25.0841C436.001 25.083 436.002 25.085 436.004 25.0882C436.005 25.091 436.003 25.0874 436.001 25.0732L434.015 25.3068C434.11 26.1202 434.63 26.6796 435.308 26.9912C435.933 27.2782 436.726 27.38 437.598 27.38V25.38ZM436.003 25.0963L435.443 19.1463L433.452 19.3337L434.012 25.2837L436.003 25.0963ZM434.972 18.3883C433.642 17.5702 432.017 16.9529 430.123 16.5156L429.673 18.4644C431.418 18.8671 432.826 19.4164 433.924 20.0917L434.972 18.3883ZM430.152 16.5229C428.294 16.034 426.389 15.79 424.438 15.79V17.79C426.22 17.79 427.955 18.0127 429.643 18.4571L430.152 16.5229ZM424.438 15.79C421.002 15.79 417.96 16.6269 415.351 18.333L416.445 20.007C418.689 18.5398 421.34 17.79 424.438 17.79V15.79ZM415.362 18.3257C412.754 19.981 410.765 22.3566 409.386 25.4084L411.209 26.2316C412.444 23.4967 414.189 21.439 416.434 20.0143L415.362 18.3257ZM409.386 25.4084C408.009 28.4591 407.338 32.0358 407.338 36.11H409.338C409.338 32.2509 409.974 28.9675 411.209 26.2316L409.386 25.4084ZM407.338 36.11C407.338 40.2757 408.008 43.9622 409.379 47.1456L411.216 46.3544C409.974 43.4711 409.338 40.0643 409.338 36.11H407.338ZM409.385 47.1574C410.801 50.3316 412.774 52.8393 415.321 54.637L416.474 53.003C414.261 51.4407 412.502 49.2351 411.211 46.3426L409.385 47.1574ZM415.321 54.637C417.882 56.445 420.841 57.34 424.158 57.34V55.34C421.222 55.34 418.673 54.555 416.474 53.003L415.321 54.637ZM424.158 57.34C426.327 57.34 428.386 56.9697 430.327 56.2233L429.609 54.3567C427.909 55.0103 426.095 55.34 424.158 55.34V57.34ZM430.319 56.2263C432.298 55.4843 433.966 54.4564 435.295 53.1271L433.881 51.7129C432.783 52.8102 431.371 53.6957 429.617 54.3537L430.319 56.2263ZM435.584 52.5044L436.284 44.2444L434.291 44.0756L433.591 52.3356L435.584 52.5044ZM435.288 45.16C436.292 45.16 436.877 45.2566 437.156 45.3685L437.899 43.5115C437.246 43.2501 436.337 43.16 435.288 43.16V45.16ZM437.156 45.3685C437.435 45.4798 437.485 45.5865 437.501 45.6311L439.374 44.9289C439.111 44.2268 438.554 43.7735 437.899 43.5115L437.156 45.3685ZM437.439 45.3261L437.859 54.4261L439.857 54.3339L439.437 45.2339L437.439 45.3261ZM438.189 53.6367C436.443 55.2084 434.189 56.4772 431.397 57.4229L432.039 59.3171C435.033 58.3028 437.54 56.9116 439.527 55.1233L438.189 53.6367ZM431.397 57.4229C428.606 58.3681 425.751 58.84 422.828 58.84V60.84C425.971 60.84 429.043 60.3319 432.039 59.3171L431.397 57.4229ZM447.985 59H446.985V60H447.985V59ZM449.105 56.48L448.845 55.5144L448.826 55.5196L448.807 55.5255L449.105 56.48ZM452.745 55.5L453.005 56.4656L453.745 56.2664V55.5H452.745ZM452.745 17.84H453.745V17.048L452.974 16.8666L452.745 17.84ZM447.985 16.72H446.985V17.512L447.756 17.6934L447.985 16.72ZM448.265 15.18L447.371 14.7328V14.7328L448.265 15.18ZM449.315 14.13V13.13H449.024L448.778 13.2863L449.315 14.13ZM478.785 14.13H479.785V13.13H478.785V14.13ZM478.785 22.95V23.95H479.785V22.95H478.785ZM476.195 21.76L475.245 22.072L475.248 22.0824L475.252 22.0928L476.195 21.76ZM474.655 17.07L475.605 16.758L475.367 16.0317L474.603 16.0713L474.655 17.07ZM458.485 17.91L458.433 16.9113L457.485 16.9606V17.91H458.485ZM458.485 34.71H457.485V35.71H458.485V34.71ZM471.645 34.71V35.71H472.46L472.624 34.9121L471.645 34.71ZM472.555 30.3V29.3H471.74L471.576 30.0979L472.555 30.3ZM473.955 30.51L473.668 31.4678V31.4678L473.955 30.51ZM475.145 31.35H476.145V31.0069L475.934 30.7361L475.145 31.35ZM475.145 41.22L475.934 41.8339L476.145 41.5631V41.22H475.145ZM473.955 42.06L474.151 43.0406L474.197 43.0313L474.242 43.0178L473.955 42.06ZM472.555 42.2L471.579 42.4169L471.753 43.2H472.555V42.2ZM471.575 37.79L472.551 37.5731L472.377 36.79H471.575V37.79ZM458.485 37.79V36.79H457.485V37.79H458.485ZM458.485 54.94H457.485V55.8801L458.423 55.9381L458.485 54.94ZM476.615 56.06L476.553 57.0581L477.403 57.1105L477.59 56.2808L476.615 56.06ZM478.295 48.64V47.64H477.496L477.32 48.4192L478.295 48.64ZM479.835 48.92L479.388 49.8144L479.408 49.8246L479.429 49.8338L479.835 48.92ZM480.955 49.76H481.955V49.3843L481.708 49.1015L480.955 49.76ZM480.955 59V60H481.955V59H480.955ZM448.985 59C448.985 58.345 449.072 57.931 449.179 57.6911C449.271 57.4833 449.353 57.4501 449.403 57.4345L448.807 55.5255C448.11 55.7432 447.632 56.2467 447.351 56.8789C447.085 57.479 446.985 58.2083 446.985 59H448.985ZM449.365 57.4456L453.005 56.4656L452.485 54.5344L448.845 55.5144L449.365 57.4456ZM453.745 55.5V17.84H451.745V55.5H453.745ZM452.974 16.8666L448.214 15.7466L447.756 17.6934L452.516 18.8134L452.974 16.8666ZM448.985 16.72C448.985 16.1429 449.071 15.805 449.16 15.6272L447.371 14.7328C447.086 15.3016 446.985 15.9904 446.985 16.72H448.985ZM449.16 15.6272C449.236 15.4738 449.426 15.2448 449.852 14.9737L448.778 13.2863C448.178 13.6685 447.667 14.1395 447.371 14.7328L449.16 15.6272ZM449.315 15.13H478.785V13.13H449.315V15.13ZM477.785 14.13V22.95H479.785V14.13H477.785ZM478.785 21.95C477.422 21.95 477.19 21.5745 477.138 21.4272L475.252 22.0928C475.76 23.5322 477.254 23.95 478.785 23.95V21.95ZM477.145 21.448L475.605 16.758L473.705 17.382L475.245 22.072L477.145 21.448ZM474.603 16.0713L458.433 16.9113L458.537 18.9087L474.707 18.0687L474.603 16.0713ZM457.485 17.91V34.71H459.485V17.91H457.485ZM458.485 35.71H471.645V33.71H458.485V35.71ZM472.624 34.9121L473.534 30.5021L471.576 30.0979L470.666 34.5079L472.624 34.9121ZM472.555 31.3C472.92 31.3 473.29 31.3546 473.668 31.4678L474.242 29.5522C473.687 29.3854 473.123 29.3 472.555 29.3V31.3ZM473.668 31.4678C473.917 31.5426 474.144 31.6921 474.356 31.9639L475.934 30.7361C475.493 30.1679 474.927 29.7574 474.242 29.5522L473.668 31.4678ZM474.145 31.35V41.22H476.145V31.35H474.145ZM474.356 40.6061C474.144 40.8779 473.917 41.0274 473.668 41.1022L474.242 43.0178C474.927 42.8126 475.493 42.4021 475.934 41.8339L474.356 40.6061ZM473.759 41.0794C473.356 41.1601 472.955 41.2 472.555 41.2V43.2C473.089 43.2 473.621 43.1466 474.151 43.0406L473.759 41.0794ZM473.531 41.9831L472.551 37.5731L470.599 38.0069L471.579 42.4169L473.531 41.9831ZM471.575 36.79H458.485V38.79H471.575V36.79ZM457.485 37.79V54.94H459.485V37.79H457.485ZM458.423 55.9381L476.553 57.0581L476.677 55.0619L458.547 53.9419L458.423 55.9381ZM477.59 56.2808L479.27 48.8608L477.32 48.4192L475.64 55.8392L477.59 56.2808ZM478.295 49.64C478.872 49.64 479.21 49.7255 479.388 49.8144L480.282 48.0256C479.714 47.7412 479.025 47.64 478.295 47.64V49.64ZM479.429 49.8338C479.706 49.957 479.964 50.1456 480.203 50.4185L481.708 49.1015C481.293 48.6277 480.804 48.2564 480.241 48.0062L479.429 49.8338ZM479.955 49.76V59H481.955V49.76H479.955ZM480.955 58H447.985V60H480.955V58ZM489.608 59H488.608V60H489.608V59ZM490.728 56.48L490.472 55.5132L490.451 55.5189L490.429 55.5255L490.728 56.48ZM494.438 55.5L494.693 56.4668L495.438 56.2701V55.5H494.438ZM494.438 17.84H495.438V17.0507L494.67 16.8673L494.438 17.84ZM489.748 16.72H488.748V17.5093L489.516 17.6926L489.748 16.72ZM490.938 14.13V13.13H490.665L490.431 13.2681L490.938 14.13ZM516.418 15.74L515.946 16.6218L515.958 16.6283L515.971 16.6344L516.418 15.74ZM521.038 19.94L520.172 20.441L520.18 20.4546L520.188 20.4679L521.038 19.94ZM520.058 33.24L519.254 32.6451L519.246 32.6557L520.058 33.24ZM512.988 38.42L512.641 37.4819L511.512 37.8989L512.129 38.9326L512.988 38.42ZM518.728 47.1L517.923 47.6932L517.929 47.7022L518.728 47.1ZM524.398 53.89L523.673 54.5788L523.682 54.588L523.691 54.5971L524.398 53.89ZM529.228 57.67L529.965 58.3457L530.861 57.3685L529.675 56.7756L529.228 57.67ZM527.338 59.14L526.848 58.2684L526.835 58.2753L526.823 58.2825L527.338 59.14ZM520.268 57.39L519.618 58.1506L519.624 58.1552L519.629 58.1598L520.268 57.39ZM514.248 50.39L515.07 49.8208L514.248 50.39ZM508.228 39.4L509.141 38.9929L508.854 38.3489L508.151 38.4029L508.228 39.4ZM500.248 38.84L500.479 37.8672L499.248 37.574V38.84H500.248ZM500.248 55.36H499.248V56.1798L500.052 56.3406L500.248 55.36ZM505.498 56.41H506.498V55.5902L505.694 55.4294L505.498 56.41ZM505.218 58.02L504.323 57.5728L504.3 57.6197L504.281 57.6689L505.218 58.02ZM504.238 59V60H504.493L504.717 59.8779L504.238 59ZM503.188 17.42L503.058 16.4284V16.4284L503.188 17.42ZM500.248 17.91L500.042 16.9314L499.248 17.0986V17.91H500.248ZM500.248 35.62H499.248V36.412L500.019 36.5934L500.248 35.62ZM503.048 36.04L502.961 37.0362L503.048 36.04ZM513.828 33.31L513.076 32.6501L513.067 32.6607L513.828 33.31ZM513.688 19.66L513.001 20.3865L513.011 20.396L513.021 20.4052L513.688 19.66ZM490.608 59C490.608 58.345 490.695 57.931 490.802 57.6911C490.894 57.4833 490.976 57.4501 491.026 57.4345L490.429 55.5255C489.733 55.7432 489.255 56.2467 488.974 56.8789C488.707 57.479 488.608 58.2083 488.608 59H490.608ZM490.983 57.4468L494.693 56.4668L494.182 54.5332L490.472 55.5132L490.983 57.4468ZM495.438 55.5V17.84H493.438V55.5H495.438ZM494.67 16.8673L489.98 15.7473L489.516 17.6926L494.205 18.8126L494.67 16.8673ZM490.748 16.72C490.748 15.6675 491.065 15.2152 491.445 14.9919L490.431 13.2681C489.224 13.9781 488.748 15.2525 488.748 16.72H490.748ZM490.938 15.13H508.858V13.13H490.938V15.13ZM508.858 15.13C511.779 15.13 514.125 15.6476 515.946 16.6218L516.889 14.8582C514.697 13.6857 512.003 13.13 508.858 13.13V15.13ZM515.971 16.6344C517.871 17.5845 519.255 18.8568 520.172 20.441L521.903 19.439C520.767 17.4765 519.071 15.9488 516.865 14.8456L515.971 16.6344ZM520.188 20.4679C521.16 22.0307 521.648 23.7601 521.648 25.68H523.648C523.648 23.3999 523.062 21.3026 521.887 19.4121L520.188 20.4679ZM521.648 25.68C521.648 28.1566 520.863 30.4707 519.254 32.6452L520.862 33.8348C522.706 31.3426 523.648 28.6167 523.648 25.68H521.648ZM519.246 32.6557C517.697 34.8077 515.512 36.422 512.641 37.4819L513.334 39.3581C516.53 38.178 519.059 36.3389 520.869 33.8243L519.246 32.6557ZM512.129 38.9326C514.011 42.0842 515.942 45.0047 517.923 47.6932L519.533 46.5068C517.594 43.8753 515.698 41.0091 513.846 37.9074L512.129 38.9326ZM517.929 47.7022C519.953 50.3842 521.867 52.6781 523.673 54.5788L525.123 53.2013C523.382 51.3686 521.516 49.1358 519.526 46.4978L517.929 47.7022ZM523.691 54.5971C525.544 56.4508 527.242 57.7954 528.781 58.5644L529.675 56.7756C528.413 56.1446 526.891 54.9692 525.105 53.1829L523.691 54.5971ZM528.491 56.9943C528.057 57.4671 527.514 57.8937 526.848 58.2684L527.828 60.0116C528.655 59.5463 529.372 58.9929 529.965 58.3457L528.491 56.9943ZM526.823 58.2825C526.274 58.6121 525.704 58.77 525.098 58.77V60.77C526.078 60.77 527.002 60.5079 527.852 59.9975L526.823 58.2825ZM525.098 58.77C524.158 58.77 522.78 58.1746 520.906 56.6202L519.629 58.1598C521.582 59.7788 523.425 60.77 525.098 60.77V58.77ZM520.917 56.6294C519.092 55.0716 517.141 52.8129 515.07 49.8208L513.426 50.9592C515.554 54.0338 517.617 56.4417 519.618 58.1506L520.917 56.6294ZM515.07 49.8208C513.013 46.8502 511.036 43.2441 509.141 38.9929L507.314 39.8071C509.246 44.1426 511.282 47.8631 513.426 50.9592L515.07 49.8208ZM508.151 38.4029C507.572 38.4475 506.967 38.47 506.338 38.47V40.47C507.015 40.47 507.671 40.4458 508.304 40.3971L508.151 38.4029ZM506.338 38.47C505.437 38.47 504.463 38.425 503.414 38.3338L503.241 40.3262C504.339 40.4217 505.372 40.47 506.338 40.47V38.47ZM503.414 38.3338C502.387 38.2444 501.409 38.0884 500.479 37.8672L500.016 39.8128C501.047 40.0582 502.122 40.229 503.241 40.3262L503.414 38.3338ZM499.248 38.84V55.36H501.248V38.84H499.248ZM500.052 56.3406L505.302 57.3906L505.694 55.4294L500.444 54.3794L500.052 56.3406ZM504.498 56.41C504.498 57.0467 504.409 57.4021 504.323 57.5728L506.112 58.4672C506.4 57.8912 506.498 57.1733 506.498 56.41H504.498ZM504.281 57.6689C504.258 57.7327 504.157 57.9047 503.759 58.1221L504.717 59.8779C505.345 59.5353 505.898 59.054 506.154 58.3711L504.281 57.6689ZM504.238 58H489.608V60H504.238V58ZM506.548 16.21C505.341 16.21 504.178 16.2824 503.058 16.4284L503.317 18.4116C504.344 18.2776 505.421 18.21 506.548 18.21V16.21ZM503.058 16.4284C501.964 16.5711 500.958 16.7385 500.042 16.9314L500.454 18.8885C501.311 18.7081 502.265 18.5489 503.317 18.4116L503.058 16.4284ZM499.248 17.91V35.62H501.248V17.91H499.248ZM500.019 36.5934C500.871 36.794 501.854 36.94 502.961 37.0362L503.134 35.0438C502.095 34.9534 501.211 34.8194 500.477 34.6466L500.019 36.5934ZM502.961 37.0362C504.063 37.1321 505.165 37.18 506.268 37.18V35.18C505.223 35.18 504.179 35.1346 503.134 35.0438L502.961 37.0362ZM506.268 37.18C509.858 37.18 512.704 36.1666 514.588 33.9593L513.067 32.6607C511.685 34.28 509.491 35.18 506.268 35.18V37.18ZM514.579 33.9698C516.421 31.8724 517.348 29.3973 517.348 26.59H515.348C515.348 28.916 514.595 30.9209 513.076 32.6502L514.579 33.9698ZM517.348 26.59C517.348 23.3557 516.395 20.7405 514.355 18.9148L513.021 20.4052C514.527 21.7529 515.348 23.7577 515.348 26.59H517.348ZM514.375 18.9335C512.415 17.0798 509.763 16.21 506.548 16.21V18.21C509.399 18.21 511.507 18.9735 513.001 20.3865L514.375 18.9335Z" fill="white"/>
<path d="M79.8057 59.84C75.699 59.84 72.0824 58.93 68.9557 57.11C65.829 55.2433 63.379 52.7 61.6057 49.48C59.879 46.2133 59.0157 42.4567 59.0157 38.21C59.0157 34.6167 59.6224 31.3033 60.8357 28.27C62.049 25.2367 63.729 22.6 65.8757 20.36C68.0224 18.0733 70.5657 16.3 73.5057 15.04C76.4457 13.78 79.619 13.15 83.0257 13.15C87.879 13.15 92.1724 14.2933 95.9057 16.58L94.5757 26.38C92.9424 26.38 92.079 25.9833 91.9857 25.19L91.4257 19.24C90.2124 18.4933 88.6957 17.91 86.8757 17.49C85.1024 17.0233 83.2824 16.79 81.4157 16.79C78.149 16.79 75.3024 17.5833 72.8757 19.17C70.449 20.71 68.5824 22.9267 67.2757 25.82C65.969 28.7133 65.3157 32.1433 65.3157 36.11C65.3157 40.17 65.969 43.7167 67.2757 46.75C68.629 49.7833 70.4957 52.14 72.8757 53.82C75.2557 55.5 78.009 56.34 81.1357 56.34C83.189 56.34 85.1257 55.99 86.9457 55.29C88.8124 54.59 90.3524 53.6333 91.5657 52.42L92.2657 44.16C93.2924 44.16 94.039 44.2533 94.5057 44.44C94.9724 44.6267 95.2757 44.9067 95.4157 45.28L95.8357 54.38C93.969 56.06 91.589 57.39 88.6957 58.37C85.8024 59.35 82.839 59.84 79.8057 59.84ZM124.843 59.84C120.83 59.84 117.283 58.9067 114.203 57.04C111.17 55.1267 108.79 52.5367 107.063 49.27C105.383 46.0033 104.543 42.3167 104.543 38.21C104.543 34.6167 105.126 31.3033 106.293 28.27C107.506 25.2367 109.163 22.6 111.263 20.36C113.41 18.0733 115.883 16.3 118.683 15.04C121.483 13.78 124.47 13.15 127.643 13.15C131.656 13.15 135.18 14.1067 138.213 16.02C141.293 17.8867 143.673 20.4533 145.353 23.72C147.08 26.94 147.943 30.6033 147.943 34.71C147.943 38.1633 147.36 41.4067 146.193 44.44C145.073 47.4733 143.463 50.1567 141.363 52.49C139.263 54.7767 136.813 56.5733 134.013 57.88C131.213 59.1867 128.156 59.84 124.843 59.84ZM126.873 56.27C129.766 56.27 132.31 55.4533 134.503 53.82C136.696 52.1867 138.4 49.9467 139.613 47.1C140.873 44.2533 141.503 41.01 141.503 37.37C141.503 30.9767 140.08 25.96 137.233 22.32C134.433 18.6333 130.536 16.79 125.543 16.79C122.883 16.79 120.433 17.56 118.193 19.1C115.953 20.64 114.156 22.8333 112.803 25.68C111.496 28.48 110.843 31.7933 110.843 35.62C110.843 42.0133 112.266 47.0533 115.113 50.74C117.96 54.4267 121.88 56.27 126.873 56.27ZM156.514 59C156.514 57.5533 156.888 56.7133 157.634 56.48L161.274 55.5V17.84L156.514 16.72C156.514 15.5533 156.911 14.69 157.704 14.13H177.794C181.201 14.13 184.164 14.7133 186.684 15.88C189.251 17 191.374 18.54 193.054 20.5C194.734 22.4133 195.994 24.6067 196.834 27.08C197.674 29.5533 198.094 32.1433 198.094 34.85C198.094 37.6967 197.604 40.5667 196.624 43.46C195.644 46.3067 194.221 48.8967 192.354 51.23C190.488 53.5633 188.201 55.4533 185.494 56.9C182.834 58.3 179.778 59 176.324 59H156.514ZM175.974 55.85C179.428 55.85 182.321 54.94 184.654 53.12C187.034 51.3 188.808 48.9433 189.974 46.05C191.188 43.11 191.794 40.0067 191.794 36.74C191.794 33.24 191.188 29.9967 189.974 27.01C188.761 24.0233 186.964 21.6433 184.584 19.87C182.204 18.05 179.264 17.14 175.764 17.14C173.944 17.14 172.288 17.2333 170.794 17.42C169.348 17.6067 168.088 17.84 167.014 18.12V54.87C168.321 55.1967 169.744 55.4533 171.284 55.64C172.824 55.78 174.388 55.85 175.974 55.85ZM206.622 59C206.622 57.5533 206.995 56.7133 207.742 56.48L211.382 55.5V17.84L206.622 16.72C206.622 16.0667 206.715 15.5533 206.902 15.18C207.088 14.8067 207.438 14.4567 207.952 14.13H237.422V22.95C235.975 22.95 235.112 22.5533 234.832 21.76L233.292 17.07L217.122 17.91V34.71H230.282L231.192 30.3C231.658 30.3 232.125 30.37 232.592 30.51C233.058 30.65 233.455 30.93 233.782 31.35V41.22C233.455 41.64 233.058 41.92 232.592 42.06C232.125 42.1533 231.658 42.2 231.192 42.2L230.212 37.79H217.122V54.94L235.252 56.06L236.932 48.64C237.585 48.64 238.098 48.7333 238.472 48.92C238.892 49.1067 239.265 49.3867 239.592 49.76V59H206.622Z" fill="#D20117"/>
<path d="M68.9557 57.11L68.4431 57.9687L68.4526 57.9742L68.9557 57.11ZM61.6057 49.48L60.7216 49.9473L60.7256 49.9549L60.7298 49.9624L61.6057 49.48ZM65.8757 20.36L66.5977 21.0519L66.6048 21.0444L65.8757 20.36ZM73.5057 15.04L73.8996 15.9591L73.5057 15.04ZM95.9057 16.58L96.8966 16.7145L96.9844 16.068L96.428 15.7272L95.9057 16.58ZM94.5757 26.38V27.38H95.4492L95.5666 26.5145L94.5757 26.38ZM91.9857 25.19L90.9901 25.2837L90.9912 25.2953L90.9926 25.3068L91.9857 25.19ZM91.4257 19.24L92.4213 19.1463L92.3746 18.6497L91.9498 18.3883L91.4257 19.24ZM86.8757 17.49L86.6212 18.4571L86.636 18.461L86.6508 18.4644L86.8757 17.49ZM72.8757 19.17L73.4116 20.0144L73.423 20.007L72.8757 19.17ZM67.2757 25.82L66.3643 25.4084L67.2757 25.82ZM67.2757 46.75L66.3572 47.1457L66.3625 47.1574L67.2757 46.75ZM72.8757 53.82L72.299 54.637L72.8757 53.82ZM86.9457 55.29L86.5946 54.3536L86.5867 54.3567L86.9457 55.29ZM91.5657 52.42L92.2728 53.1271L92.5313 52.8686L92.5621 52.5044L91.5657 52.42ZM92.2657 44.16V43.16H91.3469L91.2693 44.0756L92.2657 44.16ZM94.5057 44.44L94.1343 45.3685H94.1343L94.5057 44.44ZM95.4157 45.28L96.4146 45.2339L96.4074 45.0765L96.352 44.9289L95.4157 45.28ZM95.8357 54.38L96.5047 55.1233L96.8565 54.8067L96.8346 54.3339L95.8357 54.38ZM88.6957 58.37L88.3749 57.4229L88.6957 58.37ZM79.8057 58.84C75.8514 58.84 72.413 57.9654 69.4588 56.2458L68.4526 57.9742C71.7518 59.8946 75.5466 60.84 79.8057 60.84V58.84ZM69.4683 56.2514C66.4955 54.4766 64.1702 52.0637 62.4817 48.9976L60.7298 49.9624C62.5878 53.3363 65.1626 56.0101 68.4431 57.9686L69.4683 56.2514ZM62.4898 49.0127C60.8499 45.9102 60.0157 42.3183 60.0157 38.21H58.0157C58.0157 42.5951 58.9081 46.5164 60.7216 49.9473L62.4898 49.0127ZM60.0157 38.21C60.0157 34.7312 60.6026 31.5453 61.7642 28.6414L59.9072 27.8986C58.6421 31.0613 58.0157 34.5022 58.0157 38.21H60.0157ZM61.7642 28.6414C62.9324 25.7207 64.5444 23.1944 66.5977 21.0519L65.1537 19.6681C62.9136 22.0056 61.1656 24.7526 59.9072 27.8986L61.7642 28.6414ZM66.6048 21.0444C68.6552 18.8603 71.0837 17.166 73.8996 15.9591L73.1118 14.1209C70.0477 15.434 67.3895 17.2864 65.1466 19.6756L66.6048 21.0444ZM73.8996 15.9591C76.7072 14.7559 79.7455 14.15 83.0257 14.15V12.15C79.4925 12.15 76.1842 12.8041 73.1118 14.1209L73.8996 15.9591ZM83.0257 14.15C87.7153 14.15 91.824 15.2526 95.3834 17.4328L96.428 15.7272C92.5208 13.3341 88.0428 12.15 83.0257 12.15V14.15ZM94.9148 16.4455L93.5848 26.2455L95.5666 26.5145L96.8966 16.7145L94.9148 16.4455ZM94.5757 25.38C93.8139 25.38 93.3592 25.2834 93.1207 25.1738C93.012 25.1239 92.9811 25.0861 92.9795 25.0841C92.9786 25.083 92.9802 25.085 92.9815 25.0882C92.9827 25.091 92.9805 25.0874 92.9789 25.0732L90.9926 25.3068C91.0882 26.1202 91.6075 26.6796 92.2857 26.9912C92.9105 27.2782 93.7042 27.38 94.5757 27.38V25.38ZM92.9813 25.0963L92.4213 19.1463L90.4301 19.3337L90.9901 25.2837L92.9813 25.0963ZM91.9498 18.3883C90.6204 17.5702 88.9953 16.9529 87.1006 16.5156L86.6508 18.4644C88.3961 18.8671 89.8044 19.4164 90.9016 20.0917L91.9498 18.3883ZM87.1302 16.5229C85.2723 16.034 83.3667 15.79 81.4157 15.79V17.79C83.198 17.79 84.9324 18.0127 86.6212 18.4571L87.1302 16.5229ZM81.4157 15.79C77.9801 15.79 74.9379 16.6269 72.3285 18.333L73.423 20.007C75.6669 18.5398 78.318 17.79 81.4157 17.79V15.79ZM72.3399 18.3257C69.7315 19.981 67.7426 22.3566 66.3643 25.4084L68.1871 26.2316C69.4222 23.4967 71.1666 21.439 73.4115 20.0143L72.3399 18.3257ZM66.3643 25.4084C64.9866 28.4591 64.3157 32.0358 64.3157 36.11H66.3157C66.3157 32.2509 66.9515 28.9675 68.1871 26.2316L66.3643 25.4084ZM64.3157 36.11C64.3157 40.2757 64.986 43.9622 66.3573 47.1456L68.1941 46.3544C66.9521 43.4711 66.3157 40.0643 66.3157 36.11H64.3157ZM66.3625 47.1574C67.7786 50.3316 69.7524 52.8393 72.299 54.637L73.4524 53.003C71.239 51.4407 69.4794 49.2351 68.1889 46.3426L66.3625 47.1574ZM72.299 54.637C74.8603 56.445 77.8185 57.34 81.1357 57.34V55.34C78.1996 55.34 75.6511 54.555 73.4524 53.003L72.299 54.637ZM81.1357 57.34C83.3052 57.34 85.3641 56.9697 87.3047 56.2233L86.5867 54.3567C84.8873 55.0103 83.0729 55.34 81.1357 55.34V57.34ZM87.2968 56.2263C89.2757 55.4843 90.9435 54.4564 92.2728 53.1271L90.8586 51.7129C89.7613 52.8102 88.3491 53.6957 86.5946 54.3537L87.2968 56.2263ZM92.5621 52.5044L93.2621 44.2444L91.2693 44.0756L90.5693 52.3356L92.5621 52.5044ZM92.2657 45.16C93.2699 45.16 93.8546 45.2566 94.1343 45.3685L94.8771 43.5115C94.2235 43.2501 93.3149 43.16 92.2657 43.16V45.16ZM94.1343 45.3685C94.4126 45.4798 94.4626 45.5865 94.4794 45.6311L96.352 44.9289C96.0888 44.2268 95.5321 43.7735 94.8771 43.5115L94.1343 45.3685ZM94.4168 45.3261L94.8368 54.4261L96.8346 54.3339L96.4146 45.2339L94.4168 45.3261ZM95.1667 53.6367C93.4204 55.2084 91.1667 56.4772 88.3749 57.4229L89.0165 59.3171C92.0114 58.3028 94.5177 56.9116 96.5047 55.1233L95.1667 53.6367ZM88.3749 57.4229C85.5842 58.3681 82.7292 58.84 79.8057 58.84V60.84C82.9489 60.84 86.0206 60.3319 89.0165 59.3171L88.3749 57.4229ZM114.203 57.04L113.67 57.8858L113.677 57.8906L113.685 57.8952L114.203 57.04ZM107.063 49.27L106.174 49.7274L106.179 49.7373L107.063 49.27ZM106.293 28.27L105.364 27.8986L105.36 27.911L106.293 28.27ZM111.263 20.36L110.534 19.6756L110.534 19.6761L111.263 20.36ZM138.213 16.02L137.68 16.8658L137.687 16.8706L137.695 16.8752L138.213 16.02ZM145.353 23.72L144.464 24.1773L144.468 24.185L144.472 24.1926L145.353 23.72ZM146.193 44.44L145.26 44.081L145.255 44.0936L146.193 44.44ZM141.363 52.49L142.1 53.1664L142.106 53.159L141.363 52.49ZM134.013 57.88L134.436 58.7862L134.013 57.88ZM134.503 53.82L135.1 54.622L134.503 53.82ZM139.613 47.1L138.699 46.6952L138.693 46.7079L139.613 47.1ZM137.233 22.32L136.437 22.9248L136.441 22.9305L136.445 22.936L137.233 22.32ZM118.193 19.1L117.627 18.276V18.276L118.193 19.1ZM112.803 25.68L111.9 25.2506L111.897 25.2571L112.803 25.68ZM115.113 50.74L115.905 50.1288L115.113 50.74ZM124.843 58.84C120.991 58.84 117.628 57.9462 114.721 56.1848L113.685 57.8952C116.938 59.8671 120.668 60.84 124.843 60.84V58.84ZM114.737 56.1942C111.856 54.3771 109.595 51.9196 107.947 48.8027L106.179 49.7373C107.985 53.1537 110.484 55.8762 113.67 57.8858L114.737 56.1942ZM107.952 48.8127C106.353 45.7034 105.543 42.1766 105.543 38.21H103.543C103.543 42.4567 104.413 46.3032 106.174 49.7273L107.952 48.8127ZM105.543 38.21C105.543 34.7264 106.108 31.5363 107.226 28.629L105.36 27.911C104.145 31.0704 103.543 34.5069 103.543 38.21H105.543ZM107.222 28.6414C108.392 25.7162 109.983 23.1874 111.993 21.0439L110.534 19.6761C108.343 22.0126 106.621 24.7571 105.365 27.8986L107.222 28.6414ZM111.992 21.0444C114.051 18.8517 116.416 17.1567 119.093 15.9519L118.273 14.1281C115.35 15.4433 112.769 17.2949 110.534 19.6756L111.992 21.0444ZM119.093 15.9519C121.76 14.7519 124.606 14.15 127.643 14.15V12.15C124.333 12.15 121.206 12.8081 118.273 14.1281L119.093 15.9519ZM127.643 14.15C131.491 14.15 134.824 15.0649 137.68 16.8658L138.747 15.1742C135.535 13.1484 131.822 12.15 127.643 12.15V14.15ZM137.695 16.8752C140.613 18.6441 142.867 21.0716 144.464 24.1773L146.242 23.2627C144.48 19.8351 141.973 17.1293 138.731 15.1648L137.695 16.8752ZM144.472 24.1926C146.111 27.25 146.943 30.7475 146.943 34.71H148.943C148.943 30.4592 148.048 26.63 146.234 23.2474L144.472 24.1926ZM146.943 34.71C146.943 38.0484 146.38 41.1693 145.26 44.081L147.126 44.799C148.34 41.6441 148.943 38.2783 148.943 34.71H146.943ZM145.255 44.0936C144.178 47.0117 142.632 49.5848 140.62 51.821L142.106 53.159C144.294 50.7286 145.969 47.935 147.131 44.7864L145.255 44.0936ZM140.627 51.8136C138.615 54.0044 136.271 55.7228 133.59 56.9738L134.436 58.7862C137.355 57.4239 139.912 55.549 142.1 53.1664L140.627 51.8136ZM133.59 56.9738C130.932 58.2143 128.021 58.84 124.843 58.84V60.84C128.292 60.84 131.494 60.159 134.436 58.7862L133.59 56.9738ZM126.873 57.27C129.968 57.27 132.724 56.3916 135.1 54.622L133.906 53.018C131.895 54.515 129.564 55.27 126.873 55.27V57.27ZM135.1 54.622C137.453 52.8697 139.26 50.4797 140.533 47.4921L138.693 46.7079C137.54 49.4136 135.939 51.5036 133.906 53.018L135.1 54.622ZM140.527 47.5047C141.853 44.5108 142.503 41.126 142.503 37.37H140.503C140.503 40.894 139.893 43.9958 138.699 46.6953L140.527 47.5047ZM142.503 37.37C142.503 30.8377 141.049 25.5764 138.021 21.704L136.445 22.936C139.11 26.3436 140.503 31.1156 140.503 37.37H142.503ZM138.029 21.7152C135.024 17.7577 130.821 15.79 125.543 15.79V17.79C130.252 17.79 133.842 19.5089 136.437 22.9248L138.029 21.7152ZM125.543 15.79C122.676 15.79 120.029 16.624 117.627 18.276L118.76 19.924C120.837 18.496 123.09 17.79 125.543 17.79V15.79ZM117.627 18.276C115.22 19.9306 113.317 22.2707 111.9 25.2506L113.706 26.1094C114.996 23.3959 116.686 21.3494 118.76 19.924L117.627 18.276ZM111.897 25.2571C110.515 28.2172 109.843 31.6812 109.843 35.62H111.843C111.843 31.9055 112.477 28.7428 113.709 26.1029L111.897 25.2571ZM109.843 35.62C109.843 42.1532 111.297 47.4345 114.322 51.3512L115.905 50.1288C113.236 46.6722 111.843 41.8734 111.843 35.62H109.843ZM114.322 51.3512C117.373 55.3028 121.596 57.27 126.873 57.27V55.27C122.164 55.27 118.547 53.5505 115.905 50.1288L114.322 51.3512ZM156.514 59H155.514V60H156.514V59ZM157.634 56.48L157.374 55.5144L157.355 55.5196L157.336 55.5255L157.634 56.48ZM161.274 55.5L161.534 56.4656L162.274 56.2664V55.5H161.274ZM161.274 17.84H162.274V17.048L161.503 16.8666L161.274 17.84ZM156.514 16.72H155.514V17.512L156.285 17.6934L156.514 16.72ZM157.704 14.13V13.13H157.387L157.128 13.313L157.704 14.13ZM186.684 15.88L186.264 16.7875L186.274 16.7921L186.284 16.7965L186.684 15.88ZM193.054 20.5L192.295 21.1508L192.303 21.1598L193.054 20.5ZM196.834 27.08L197.781 26.7584L196.834 27.08ZM196.624 43.46L197.57 43.7855L197.571 43.7808L196.624 43.46ZM192.354 51.23L193.135 51.8547L192.354 51.23ZM185.494 56.9L185.96 57.7849L185.966 57.7819L185.494 56.9ZM184.654 53.12L184.047 52.3256L184.039 52.3315L184.654 53.12ZM189.974 46.05L189.05 45.6685L189.047 45.676L189.974 46.05ZM189.974 27.01L189.048 27.3864L189.974 27.01ZM184.584 19.87L183.977 20.6644L183.987 20.6719L184.584 19.87ZM170.794 17.42L170.67 16.4277L170.666 16.4282L170.794 17.42ZM167.014 18.12L166.762 17.1524L166.014 17.3474V18.12H167.014ZM167.014 54.87H166.014V55.6508L166.772 55.8401L167.014 54.87ZM171.284 55.64L171.164 56.6327L171.179 56.6345L171.194 56.6359L171.284 55.64ZM157.514 59C157.514 58.345 157.601 57.931 157.708 57.6911C157.8 57.4833 157.882 57.4501 157.932 57.4345L157.336 55.5255C156.639 55.7432 156.161 56.2467 155.88 56.8789C155.614 57.479 155.514 58.2083 155.514 59H157.514ZM157.894 57.4456L161.534 56.4656L161.014 54.5344L157.374 55.5144L157.894 57.4456ZM162.274 55.5V17.84H160.274V55.5H162.274ZM161.503 16.8666L156.743 15.7466L156.285 17.6934L161.045 18.8134L161.503 16.8666ZM157.514 16.72C157.514 15.8039 157.808 15.2805 158.281 14.947L157.128 13.313C156.013 14.0995 155.514 15.3028 155.514 16.72H157.514ZM157.704 15.13H177.794V13.13H157.704V15.13ZM177.794 15.13C181.088 15.13 183.902 15.694 186.264 16.7875L187.104 14.9725C184.426 13.7327 181.314 13.13 177.794 13.13V15.13ZM186.284 16.7965C188.725 17.8614 190.721 19.3148 192.295 21.1508L193.813 19.8492C192.027 17.7652 189.777 16.1386 187.084 14.9635L186.284 16.7965ZM192.303 21.1598C193.894 22.9718 195.089 25.0494 195.887 27.4016L197.781 26.7584C196.9 24.1639 195.575 21.8549 193.806 19.8402L192.303 21.1598ZM195.887 27.4016C196.691 29.7676 197.094 32.2487 197.094 34.85H199.094C199.094 32.038 198.658 29.339 197.781 26.7584L195.887 27.4016ZM197.094 34.85C197.094 37.5798 196.625 40.3416 195.677 43.1392L197.571 43.7808C198.584 40.7917 199.094 37.8135 199.094 34.85H197.094ZM195.679 43.1345C194.736 45.8736 193.368 48.3622 191.573 50.6053L193.135 51.8547C195.074 49.4311 196.553 46.7398 197.57 43.7855L195.679 43.1345ZM191.573 50.6053C189.794 52.8299 187.613 54.6335 185.023 56.0181L185.966 57.7819C188.788 56.2732 191.181 54.2968 193.135 51.8547L191.573 50.6053ZM185.028 56.0151C182.532 57.3289 179.64 58 176.324 58V60C179.916 60 183.136 59.2711 185.96 57.7849L185.028 56.0151ZM176.324 58H156.514V60H176.324V58ZM175.974 56.85C179.612 56.85 182.732 55.8876 185.269 53.9085L184.039 52.3315C181.91 53.9924 179.243 54.85 175.974 54.85V56.85ZM185.262 53.9144C187.79 51.9808 189.671 49.4764 190.902 46.424L189.047 45.676C187.944 48.4102 186.278 50.6192 184.047 52.3256L185.262 53.9144ZM190.899 46.4315C192.163 43.3672 192.794 40.1339 192.794 36.74H190.794C190.794 39.8794 190.212 42.8528 189.05 45.6685L190.899 46.4315ZM192.794 36.74C192.794 33.1221 192.167 29.7497 190.901 26.6336L189.048 27.3864C190.209 30.2436 190.794 33.3579 190.794 36.74H192.794ZM190.901 26.6336C189.625 23.4928 187.721 20.9599 185.182 19.0681L183.987 20.6719C186.208 22.3267 187.897 24.5538 189.048 27.3864L190.901 26.6336ZM185.192 19.0756C182.609 17.1007 179.445 16.14 175.764 16.14V18.14C179.083 18.14 181.799 18.9993 183.977 20.6644L185.192 19.0756ZM175.764 16.14C173.911 16.14 172.212 16.235 170.67 16.4277L170.918 18.4123C172.363 18.2317 173.977 18.14 175.764 18.14V16.14ZM170.666 16.4282C169.19 16.6187 167.886 16.859 166.762 17.1524L167.267 19.0876C168.289 18.821 169.505 18.5946 170.922 18.4118L170.666 16.4282ZM166.014 18.12V54.87H168.014V18.12H166.014ZM166.772 55.8401C168.124 56.1782 169.589 56.4418 171.164 56.6327L171.405 54.6473C169.9 54.4649 168.518 54.2151 167.257 53.8999L166.772 55.8401ZM171.194 56.6359C172.765 56.7787 174.358 56.85 175.974 56.85V54.85C174.417 54.85 172.884 54.7813 171.375 54.6441L171.194 56.6359ZM206.622 59H205.622V60H206.622V59ZM207.742 56.48L207.482 55.5144L207.462 55.5196L207.443 55.5255L207.742 56.48ZM211.382 55.5L211.642 56.4656L212.382 56.2664V55.5H211.382ZM211.382 17.84H212.382V17.048L211.611 16.8666L211.382 17.84ZM206.622 16.72H205.622V17.512L206.393 17.6934L206.622 16.72ZM206.902 15.18L206.007 14.7328V14.7328L206.902 15.18ZM207.952 14.13V13.13H207.66L207.415 13.2863L207.952 14.13ZM237.422 14.13H238.422V13.13H237.422V14.13ZM237.422 22.95V23.95H238.422V22.95H237.422ZM234.832 21.76L233.882 22.072L233.885 22.0824L233.889 22.0928L234.832 21.76ZM233.292 17.07L234.242 16.758L234.003 16.0317L233.24 16.0713L233.292 17.07ZM217.122 17.91L217.07 16.9113L216.122 16.9606V17.91H217.122ZM217.122 34.71H216.122V35.71H217.122V34.71ZM230.282 34.71V35.71H231.096L231.261 34.9121L230.282 34.71ZM231.192 30.3V29.3H230.377L230.212 30.0979L231.192 30.3ZM232.592 30.51L232.304 31.4678V31.4678L232.592 30.51ZM233.782 31.35H234.782V31.0069L234.571 30.7361L233.782 31.35ZM233.782 41.22L234.571 41.8339L234.782 41.5631V41.22H233.782ZM232.592 42.06L232.788 43.0406L232.834 43.0313L232.879 43.0178L232.592 42.06ZM231.192 42.2L230.215 42.4169L230.389 43.2H231.192V42.2ZM230.212 37.79L231.188 37.5731L231.014 36.79H230.212V37.79ZM217.122 37.79V36.79H216.122V37.79H217.122ZM217.122 54.94H216.122V55.8801L217.06 55.9381L217.122 54.94ZM235.252 56.06L235.19 57.0581L236.039 57.1105L236.227 56.2808L235.252 56.06ZM236.932 48.64V47.64H236.133L235.956 48.4192L236.932 48.64ZM238.472 48.92L238.024 49.8144L238.045 49.8246L238.066 49.8338L238.472 48.92ZM239.592 49.76H240.592V49.3843L240.344 49.1015L239.592 49.76ZM239.592 59V60H240.592V59H239.592ZM207.622 59C207.622 58.345 207.709 57.931 207.815 57.6911C207.908 57.4833 207.99 57.4501 208.04 57.4345L207.443 55.5255C206.747 55.7432 206.269 56.2467 205.988 56.8789C205.721 57.479 205.622 58.2083 205.622 59H207.622ZM208.002 57.4456L211.642 56.4656L211.122 54.5344L207.482 55.5144L208.002 57.4456ZM212.382 55.5V17.84H210.382V55.5H212.382ZM211.611 16.8666L206.851 15.7466L206.393 17.6934L211.153 18.8134L211.611 16.8666ZM207.622 16.72C207.622 16.1429 207.707 15.805 207.796 15.6272L206.007 14.7328C205.723 15.3016 205.622 15.9904 205.622 16.72H207.622ZM207.796 15.6272C207.873 15.4738 208.062 15.2448 208.489 14.9737L207.415 13.2863C206.814 13.6685 206.304 14.1395 206.007 14.7328L207.796 15.6272ZM207.952 15.13H237.422V13.13H207.952V15.13ZM236.422 14.13V22.95H238.422V14.13H236.422ZM237.422 21.95C236.059 21.95 235.827 21.5745 235.775 21.4272L233.889 22.0928C234.397 23.5322 235.891 23.95 237.422 23.95V21.95ZM235.782 21.448L234.242 16.758L232.342 17.382L233.882 22.072L235.782 21.448ZM233.24 16.0713L217.07 16.9113L217.174 18.9087L233.344 18.0687L233.24 16.0713ZM216.122 17.91V34.71H218.122V17.91H216.122ZM217.122 35.71H230.282V33.71H217.122V35.71ZM231.261 34.9121L232.171 30.5021L230.212 30.0979L229.302 34.5079L231.261 34.9121ZM231.192 31.3C231.557 31.3 231.927 31.3546 232.304 31.4678L232.879 29.5522C232.323 29.3854 231.76 29.3 231.192 29.3V31.3ZM232.304 31.4678C232.554 31.5426 232.781 31.6921 232.992 31.9639L234.571 30.7361C234.129 30.1679 233.563 29.7574 232.879 29.5522L232.304 31.4678ZM232.782 31.35V41.22H234.782V31.35H232.782ZM232.992 40.6061C232.781 40.8779 232.554 41.0274 232.304 41.1022L232.879 43.0178C233.563 42.8126 234.129 42.4021 234.571 41.8339L232.992 40.6061ZM232.396 41.0794C231.992 41.1601 231.591 41.2 231.192 41.2V43.2C231.725 43.2 232.258 43.1466 232.788 43.0406L232.396 41.0794ZM232.168 41.9831L231.188 37.5731L229.235 38.0069L230.215 42.4169L232.168 41.9831ZM230.212 36.79H217.122V38.79H230.212V36.79ZM216.122 37.79V54.94H218.122V37.79H216.122ZM217.06 55.9381L235.19 57.0581L235.313 55.0619L217.183 53.9419L217.06 55.9381ZM236.227 56.2808L237.907 48.8608L235.956 48.4192L234.276 55.8392L236.227 56.2808ZM236.932 49.64C237.509 49.64 237.847 49.7255 238.024 49.8144L238.919 48.0256C238.35 47.7412 237.661 47.64 236.932 47.64V49.64ZM238.066 49.8338C238.343 49.957 238.6 50.1456 238.839 50.4185L240.344 49.1015C239.93 48.6277 239.441 48.2564 238.878 48.0062L238.066 49.8338ZM238.592 49.76V59H240.592V49.76H238.592ZM239.592 58H206.622V60H239.592V58Z" fill="#D20117"/>
<path d="M561.317 1.00003L557.987 29.8079L569.447 30.932L572.778 2.12413L561.317 1.00003ZM564.46 74.0721L567.79 45.2642L556.33 44.1401L553 72.948L564.46 74.0721ZM557.987 29.8079L556.33 44.1401L567.79 45.2642L569.447 30.932L557.987 29.8079Z" fill="white"/>
<path d="M561.317 1.00003L557.987 29.8079L569.447 30.932L572.778 2.12413L561.317 1.00003ZM564.46 74.0721L567.79 45.2642L556.33 44.1401L553 72.948L564.46 74.0721ZM557.987 29.8079L556.33 44.1401L567.79 45.2642L569.447 30.932L557.987 29.8079Z" fill="white"/>
<path d="M456.088 38.7992L491.337 38.7992L491.249 33.7L456 33.7L456.088 38.7992ZM544.035 33.7L508.786 33.7L508.874 38.7992H544.123L544.035 33.7ZM491.337 38.7992L508.874 38.7992L508.786 33.7L491.249 33.7L491.337 38.7992Z" fill="white"/>
<path d="M456.088 38.7992L491.337 38.7992L491.249 33.7L456 33.7L456.088 38.7992ZM544.035 33.7L508.786 33.7L508.874 38.7992H544.123L544.035 33.7ZM491.337 38.7992L508.874 38.7992L508.786 33.7L491.249 33.7L491.337 38.7992Z" fill="white"/>
</svg>
